<svg width="26" height="27" viewBox="0 0 26 27" fill="none" xmlns="http://www.w3.org/2000/svg">
<path d="M20.5837 8.43049C20.5837 7.24304 19.6087 6.27148 18.417 6.27148H15.167V8.43049H18.417V11.2912L14.647 15.987H10.8337V10.5895H6.50033C4.10616 10.5895 2.16699 12.5218 2.16699 14.9075V18.146H4.33366C4.33366 19.938 5.78533 21.3845 7.58366 21.3845C9.38199 21.3845 10.8337 19.938 10.8337 18.146H15.687L20.5837 12.0468V8.43049ZM7.58366 19.2255C6.98782 19.2255 6.50033 18.7397 6.50033 18.146H8.66699C8.66699 18.7397 8.17949 19.2255 7.58366 19.2255Z" fill="#82CFFB"/>
<path d="M5.41748 7.35156H10.8341V9.51057H5.41748V7.35156ZM20.5841 14.9081C18.7858 14.9081 17.3341 16.3546 17.3341 18.1466C17.3341 19.9386 18.7858 21.3851 20.5841 21.3851C22.3825 21.3851 23.8341 19.9386 23.8341 18.1466C23.8341 16.3546 22.3825 14.9081 20.5841 14.9081ZM20.5841 19.2261C19.9883 19.2261 19.5008 18.7403 19.5008 18.1466C19.5008 17.5529 19.9883 17.0671 20.5841 17.0671C21.18 17.0671 21.6675 17.5529 21.6675 18.1466C21.6675 18.7403 21.18 19.2261 20.5841 19.2261Z" fill="#82CFFB"/>
</svg>
