<svg width="11" height="18" viewBox="0 0 11 18" fill="none" xmlns="http://www.w3.org/2000/svg">
<path d="M2.46335 17.7264C2.35463 17.6741 2.26429 17.5821 2.20657 17.4648C2.14886 17.3476 2.12705 17.2117 2.1446 17.0788L3.11148 9.90681H0.545538C0.46419 9.9093 0.383427 9.89047 0.30948 9.85177C0.235532 9.81307 0.170377 9.75553 0.119042 9.68359C0.0677069 9.61166 0.0315635 9.52725 0.0134009 9.43688C-0.00476179 9.34651 -0.00445822 9.25259 0.014288 9.16237L1.60804 1.29437C1.63608 1.15896 1.70422 1.03869 1.80098 0.953814C1.89774 0.868934 2.01721 0.824623 2.13929 0.828341H7.45179C7.53116 0.828034 7.60958 0.847989 7.68128 0.886741C7.75299 0.925494 7.81617 0.982057 7.86617 1.05228C7.91687 1.12329 7.95278 1.20648 7.97118 1.29559C7.98959 1.3847 7.99001 1.4774 7.97242 1.56672L7.05335 6.27542H9.57679C9.67636 6.2752 9.77398 6.30685 9.85852 6.36678C9.94306 6.4267 10.0111 6.51249 10.0549 6.61435C10.093 6.71212 10.1076 6.81963 10.0974 6.92595C10.0871 7.03226 10.0523 7.13358 9.99648 7.21958L3.09023 17.5085C3.04355 17.5873 2.98123 17.6525 2.90831 17.6988C2.8354 17.7451 2.75394 17.7711 2.67054 17.7748C2.59945 17.7733 2.52922 17.7569 2.46335 17.7264Z" fill="#82CFFB"/>
</svg>
